<svg width="139" height="137" viewBox="0 0 139 137" fill="none" xmlns="http://www.w3.org/2000/svg">
<g filter="url(#filter0_d_2994_20087)">
<path d="M113.935 45.3482C126.466 62.6704 118.563 88.9514 96.4841 104.923C74.4647 120.852 47.7283 119.426 35.1636 102.057C22.5335 84.5977 28.6617 56.6426 50.5715 40.7933C72.482 24.9433 101.306 27.8893 113.935 45.3482Z" stroke="url(#paint0_linear_2994_20087)" stroke-width="3.9647"/>
<path d="M110.258 36.3511C128.54 58.0171 123.818 84.2144 98.385 104.855C72.1981 124.164 43.7914 119.506 28.8604 100.515C13.9293 81.5232 19.4055 49.9544 42.5934 33.1804C65.7813 16.4065 96.5021 17.3355 110.258 36.3511Z" fill="url(#paint1_linear_2994_20087)"/>
<path d="M107.584 35.8489C113.865 44.5317 114.905 55.4557 111.51 66.3604C108.11 77.2798 100.277 88.0861 88.9992 96.2441C66.3174 112.652 39.1079 111.515 26.5684 94.1813C13.9649 76.7585 20.5236 48.436 43.0952 32.1078C65.6676 15.7791 94.9813 18.4268 107.584 35.8489Z" stroke="url(#paint2_linear_2994_20087)" stroke-width="3.9647"/>
<path d="M102.52 35.8758C112.908 50.2359 107.075 74.9522 85.3285 90.6832C63.5824 106.414 38.2819 104.22 27.8939 89.86C17.5059 75.4999 23.3396 50.7835 45.0857 35.0526C66.8318 19.3216 92.1323 21.5157 102.52 35.8758Z" fill="#D9D9D9" stroke="url(#paint3_linear_2994_20087)" stroke-width="11.0131"/>
<path d="M97.3458 39.5925C101.815 45.7711 102.369 54.0098 99.5218 62.3998C96.6753 70.7867 90.448 79.2423 81.5129 85.7059C72.5776 92.1696 62.647 95.4134 53.8406 95.4688C45.0321 95.5243 37.4259 92.3986 32.9541 86.2168C28.4823 80.0351 27.8938 71.8328 30.7031 63.4841C33.5116 55.1374 39.7002 46.7207 48.6355 40.2569C57.5715 33.7927 67.5413 30.5102 76.3873 30.4172C85.2362 30.3242 92.8766 33.4143 97.3458 39.5925Z" stroke="url(#paint4_linear_2994_20087)" stroke-width="1.76209"/>
<g filter="url(#filter1_d_2994_20087)">
<path d="M66.4606 39.3142L95.7924 62.9397L82.4404 64.3347L53.1565 40.7477L66.4606 39.3142Z" fill="black"/>
<path d="M79.1737 68.4885L49.8419 44.863L51.3233 58.2057L80.6072 81.7927L79.1737 68.4885Z" fill="black"/>
<path d="M47.7111 62.3962L77.0429 86.0217L63.6909 87.4167L34.407 63.8298L47.7111 62.3962Z" fill="black"/>
</g>
</g>
<defs>
<filter id="filter0_d_2994_20087" x="13.3413" y="18.6523" width="112.551" height="107.355" filterUnits="userSpaceOnUse" color-interpolation-filters="sRGB">
<feFlood flood-opacity="0" result="BackgroundImageFix"/>
<feColorMatrix in="SourceAlpha" type="matrix" values="0 0 0 0 0 0 0 0 0 0 0 0 0 0 0 0 0 0 127 0" result="hardAlpha"/>
<feOffset dy="4"/>
<feGaussianBlur stdDeviation="2"/>
<feComposite in2="hardAlpha" operator="out"/>
<feColorMatrix type="matrix" values="0 0 0 0 0 0 0 0 0 0 0 0 0 0 0 0 0 0 0.25 0"/>
<feBlend mode="normal" in2="BackgroundImageFix" result="effect1_dropShadow_2994_20087"/>
<feBlend mode="normal" in="SourceGraphic" in2="effect1_dropShadow_2994_20087" result="shape"/>
</filter>
<filter id="filter1_d_2994_20087" x="32.6869" y="39.3145" width="64.8259" height="51.5432" filterUnits="userSpaceOnUse" color-interpolation-filters="sRGB">
<feFlood flood-opacity="0" result="BackgroundImageFix"/>
<feColorMatrix in="SourceAlpha" type="matrix" values="0 0 0 0 0 0 0 0 0 0 0 0 0 0 0 0 0 0 127 0" result="hardAlpha"/>
<feOffset dy="1.72034"/>
<feGaussianBlur stdDeviation="0.860171"/>
<feComposite in2="hardAlpha" operator="out"/>
<feColorMatrix type="matrix" values="0 0 0 0 0 0 0 0 0 0 0 0 0 0 0 0 0 0 0.5 0"/>
<feBlend mode="normal" in2="BackgroundImageFix" result="effect1_dropShadow_2994_20087"/>
<feBlend mode="normal" in="SourceGraphic" in2="effect1_dropShadow_2994_20087" result="shape"/>
</filter>
<linearGradient id="paint0_linear_2994_20087" x1="112.99" y1="40.6117" x2="45.2638" y2="116.746" gradientUnits="userSpaceOnUse">
<stop stop-color="#656565"/>
<stop offset="0.0550575" stop-color="#606060"/>
<stop offset="0.170676" stop-color="#6B6A6A"/>
<stop offset="0.309086" stop-color="#595959"/>
<stop offset="0.491314"/>
<stop offset="0.704021" stop-color="#333333"/>
<stop offset="0.78935" stop-color="#565656"/>
<stop offset="0.909367" stop-color="#3A3A3A"/>
<stop offset="1" stop-color="#6A6A6A"/>
</linearGradient>
<linearGradient id="paint1_linear_2994_20087" x1="111.826" y1="41.1071" x2="36.9543" y2="116.715" gradientUnits="userSpaceOnUse">
<stop stop-color="#303030"/>
<stop offset="0.0550575" stop-color="#666666"/>
<stop offset="0.170676" stop-color="#252525"/>
<stop offset="0.309086" stop-color="#191919"/>
<stop offset="0.491314"/>
<stop offset="0.660555" stop-color="#222222"/>
<stop offset="0.771761" stop-color="#3A3A3A"/>
<stop offset="0.815114" stop-color="#565656"/>
<stop offset="0.881945" stop-color="#353535"/>
<stop offset="1" stop-color="#4A4A4A"/>
</linearGradient>
<linearGradient id="paint2_linear_2994_20087" x1="106.639" y1="31.112" x2="37.5983" y2="109.632" gradientUnits="userSpaceOnUse">
<stop stop-color="#4F4F4F"/>
<stop offset="0.0550575" stop-color="#565656"/>
<stop offset="0.170676" stop-color="#323232"/>
<stop offset="0.309086" stop-color="#464646"/>
<stop offset="0.491314"/>
<stop offset="0.704021" stop-color="#333333"/>
<stop offset="0.843399" stop-color="#3E3E3E"/>
<stop offset="0.909367" stop-color="#3A3A3A"/>
<stop offset="1" stop-color="#444444"/>
</linearGradient>
<linearGradient id="paint3_linear_2994_20087" x1="84.6565" y1="18.0355" x2="51.0758" y2="107.82" gradientUnits="userSpaceOnUse">
<stop/>
<stop offset="0.5" stop-color="#3A3A3A"/>
<stop offset="0.984375"/>
</linearGradient>
<linearGradient id="paint4_linear_2994_20087" x1="48.5626" y1="37.7356" x2="83.706" y2="81.7906" gradientUnits="userSpaceOnUse">
<stop stop-color="#040404"/>
<stop offset="0.536458" stop-color="#444444"/>
<stop offset="1" stop-opacity="0"/>
</linearGradient>
</defs>
</svg>
