<svg width="47" height="73" viewBox="0 0 47 73" fill="none" xmlns="http://www.w3.org/2000/svg">
<path d="M11.3328 50.2L10.9328 33.7H15.5328C18.9328 33.7 22.0328 33.4 24.8328 32.8C27.6328 32.2 29.8661 31.0333 31.5328 29.3C33.1995 27.5667 34.0328 25.0333 34.0328 21.7C34.0328 18.5 33.0661 16 31.1328 14.2C29.1995 12.3333 26.6328 11.4 23.4328 11.4C20.0995 11.4 17.4995 12.3333 15.6328 14.2C13.7661 16 12.8328 18.4667 12.8328 21.6H0.732813C0.666146 17.6 1.53281 14.0333 3.33281 10.9C5.13281 7.76666 7.73281 5.29999 11.1328 3.49999C14.5995 1.7 18.7328 0.799999 23.5328 0.799999C27.9995 0.799999 31.9328 1.63333 35.3328 3.3C38.7995 4.96666 41.4995 7.36666 43.4328 10.5C45.4328 13.5667 46.4328 17.3333 46.4328 21.8C46.4328 26.4 45.3995 30.2 43.3328 33.2C41.3328 36.2 38.5661 38.4333 35.0328 39.9C31.5661 41.3667 27.5328 42.1333 22.9328 42.2L22.6328 50.2H11.3328ZM17.0328 72.7C14.6995 72.7 12.7661 71.9667 11.2328 70.5C9.76615 69.0333 9.03281 67.2667 9.03281 65.2C9.03281 63.0667 9.76615 61.2667 11.2328 59.8C12.7661 58.3333 14.6995 57.6 17.0328 57.6C19.3661 57.6 21.2661 58.3333 22.7328 59.8C24.1995 61.2667 24.9328 63.0667 24.9328 65.2C24.9328 67.2667 24.1995 69.0333 22.7328 70.5C21.2661 71.9667 19.3661 72.7 17.0328 72.7Z" fill="#BBDCDD"/>
</svg>
